<?xml version="1.0" encoding="iso-8859-1"?>
<!-- Uploaded to: SVG Repo, www.svgrepo.com, Generator: SVG Repo Mixer Tools -->
<svg height="800px" width="800px" version="1.1" id="Capa_1" xmlns="http://www.w3.org/2000/svg" xmlns:xlink="http://www.w3.org/1999/xlink" 
	 viewBox="0 0 13.091 13.091" xml:space="preserve">
<g>
	<g>
		<path style="fill:#010002;" d="M10.214,1.804H9.961C9.833,2.082,9.66,2.334,9.44,2.551C9.24,2.751,9.014,2.912,8.767,3.036
			L8.756,3.059c-0.386,0.803-1.212,1.324-2.1,1.324c-0.875,0-1.668-0.485-2.07-1.263L4.577,3.098
			c-0.304-0.129-0.58-0.31-0.818-0.546c-0.219-0.218-0.392-0.47-0.522-0.748H3.164l-3.159,2.68L0,13.07h13.091V4.483L10.214,1.804z
			 M1.264,5.747h10.563v2.566c-0.088,0.046-0.169,0.111-0.228,0.197c-0.038,0.056-0.183,0.215-0.337,0.228
			c-0.14,0.005-0.338-0.101-0.549-0.319C10.09,7.782,9.51,7.692,9.133,7.728C8.353,7.805,7.916,8.444,7.869,8.517
			C7.851,8.545,7.701,8.722,7.541,8.738C7.399,8.755,7.202,8.64,6.989,8.42C6.365,7.78,5.784,7.692,5.408,7.728
			C4.646,7.804,4.213,8.414,4.15,8.509c0,0-0.001,0-0.001,0.001C4.111,8.565,3.967,8.724,3.813,8.738
			C3.67,8.748,3.476,8.636,3.264,8.419C2.64,7.781,2.062,7.694,1.683,7.727C1.529,7.743,1.392,7.784,1.265,7.834L1.264,5.747
			L1.264,5.747z M11.828,11.806H1.263V9.402c0.08-0.045,0.153-0.106,0.209-0.187C1.51,9.16,1.655,8.999,1.808,8.987
			c0.139-0.008,0.337,0.101,0.549,0.317c0.549,0.563,1.063,0.699,1.436,0.699c0.051,0,0.1-0.002,0.147-0.008
			C4.717,9.919,5.155,9.28,5.202,9.207C5.22,9.179,5.37,9.002,5.53,8.987c0.144-0.015,0.34,0.099,0.552,0.317
			c0.548,0.563,1.062,0.699,1.436,0.699c0.052,0,0.101-0.002,0.147-0.008c0.762-0.074,1.196-0.685,1.257-0.779
			c0-0.001,0.002-0.001,0.002-0.002c0.038-0.056,0.183-0.216,0.337-0.228c0.142-0.004,0.337,0.101,0.549,0.317
			c0.549,0.563,1.063,0.699,1.436,0.699c0.052,0,0.1-0.002,0.147-0.008c0.162-0.016,0.305-0.059,0.438-0.114v1.926
			C11.83,11.806,11.828,11.806,11.828,11.806z M7.518,3.232L7.518,3.232L7.56,3.232c0.112-0.001,0.213-0.009,0.316-0.021
			c0.173-0.025,0.337-0.065,0.491-0.119c-0.3,0.623-0.934,1.055-1.672,1.055c-0.719,0-1.34-0.409-1.648-1.006
			C5.155,3.17,5.266,3.195,5.383,3.211c0.101,0.011,0.203,0.02,0.312,0.02h0.044c0.024,0,0.047-0.002,0.071-0.002
			c0.016,0.013,0.031,0.026,0.048,0.038c0.085,0.055,0.171,0.11,0.268,0.159c0.119,0.062,0.222,0.107,0.335,0.144l0.11,0.037
			l0.04-0.057l0.041,0.057l0.11-0.036C6.877,3.534,6.98,3.49,7.098,3.429c0.098-0.051,0.186-0.106,0.271-0.163
			c0.017-0.011,0.032-0.025,0.049-0.038C7.451,3.229,7.482,3.232,7.518,3.232z M5.532,1.027c-0.129-0.13-0.272-0.24-0.427-0.334
			c0.011-0.038,0.019-0.071,0.032-0.107c0.033-0.09,0.069-0.18,0.116-0.274c0.047-0.094,0.099-0.19,0.174-0.292
			C5.548,0.06,5.646,0.105,5.739,0.153c0.094,0.048,0.176,0.099,0.255,0.152c0.156,0.106,0.286,0.22,0.398,0.34
			c0.098,0.106,0.179,0.216,0.25,0.331c0.07-0.115,0.15-0.225,0.247-0.331c0.11-0.12,0.242-0.233,0.397-0.34
			c0.08-0.053,0.161-0.104,0.256-0.152C7.633,0.106,7.732,0.06,7.853,0.021C7.927,0.122,7.98,0.22,8.025,0.313
			c0.048,0.094,0.083,0.183,0.116,0.274c0.012,0.032,0.017,0.064,0.028,0.096C8.008,0.78,7.86,0.893,7.725,1.028
			C7.49,1.265,7.312,1.544,7.197,1.855C7.134,2.024,7.09,2.206,7.064,2.4c-0.011,0.1-0.02,0.202-0.021,0.312
			C7.04,2.847,7.048,2.959,7.066,3.076l0.017,0.115l0.11,0.017c-0.044,0.028-0.092,0.054-0.142,0.08
			C6.96,3.335,6.861,3.381,6.74,3.42C6.702,3.367,6.67,3.314,6.64,3.262C6.61,3.314,6.578,3.365,6.538,3.419
			C6.418,3.381,6.32,3.335,6.226,3.287C6.177,3.26,6.127,3.233,6.082,3.205l0.092-0.014l0.017-0.115
			C6.21,2.959,6.217,2.847,6.215,2.714C6.214,2.603,6.205,2.5,6.193,2.399C6.168,2.207,6.123,2.024,6.06,1.857
			C5.946,1.543,5.767,1.265,5.532,1.027z M7.848,1.156c0.21-0.212,0.462-0.38,0.77-0.495c0.153-0.057,0.322-0.1,0.508-0.124
			c0.095-0.011,0.192-0.02,0.296-0.02C9.527,0.517,9.636,0.52,9.76,0.541c0.02,0.124,0.024,0.234,0.023,0.338
			C9.782,0.984,9.775,1.08,9.763,1.175C9.738,1.362,9.697,1.53,9.639,1.684c-0.115,0.307-0.283,0.559-0.495,0.77
			C8.931,2.664,8.68,2.832,8.372,2.946C8.218,3.003,8.05,3.047,7.864,3.07C7.769,3.081,7.673,3.09,7.568,3.091
			C7.464,3.093,7.355,3.089,7.231,3.069c-0.02-0.124-0.024-0.234-0.023-0.337C7.21,2.627,7.219,2.53,7.23,2.436
			C7.255,2.25,7.297,2.082,7.354,1.928C7.468,1.62,7.637,1.368,7.848,1.156z M3.513,1.175c-0.011-0.094-0.02-0.191-0.021-0.296
			C3.491,0.775,3.495,0.665,3.515,0.541C3.64,0.52,3.749,0.517,3.854,0.517c0.106,0,0.201,0.009,0.296,0.02
			c0.186,0.024,0.355,0.067,0.509,0.124c0.307,0.115,0.56,0.283,0.77,0.495c0.21,0.212,0.378,0.464,0.492,0.772
			c0.057,0.154,0.1,0.322,0.125,0.509c0.011,0.094,0.02,0.191,0.02,0.295C6.068,2.836,6.064,2.945,6.045,3.07
			C5.92,3.089,5.811,3.093,5.708,3.092c-0.105-0.001-0.201-0.01-0.296-0.021C5.227,3.047,5.057,3.003,4.904,2.946
			C4.597,2.832,4.344,2.664,4.133,2.454c-0.213-0.21-0.382-0.463-0.497-0.77C3.58,1.53,3.538,1.362,3.513,1.175z"/>
	</g>
</g>
</svg>